<?xml version="1.0" encoding="utf-8"?>
<!-- Generator: Adobe Illustrator 27.5.0, SVG Export Plug-In . SVG Version: 6.00 Build 0)  -->
<svg version="1.1" id="Layer_3" xmlns="http://www.w3.org/2000/svg" xmlns:xlink="http://www.w3.org/1999/xlink" x="0px" y="0px"
	 viewBox="0 0 2000 1000" style="enable-background:new 0 0 2000 1000;" xml:space="preserve">
<g>
	<defs>
		<rect id="SVGID_1_" width="2000" height="1000"/>
	</defs>
	<clipPath id="SVGID_00000142891383179268720090000004309773769937495705_">
		<use xlink:href="#SVGID_1_"  style="overflow:visible;"/>
	</clipPath>
	<g style="clip-path:url(#SVGID_00000142891383179268720090000004309773769937495705_);">
		<g>
			<path style="fill:#2B2407;" d="M258.4-363.808c0,0,123.936,283.302,531.102,91.977s544.781-76.401,544.781-76.401l375.306,34.329
				l10.823,412.011L631.555,216.623l-708.849-54.406l0.147-498.408L258.4-363.808z"/>
		</g>
	</g>
	<g style="clip-path:url(#SVGID_00000142891383179268720090000004309773769937495705_);">
		<g>
			<path style="fill:#3D3309;" d="M53.402-380.794c0,0,248.119,459.702,648.448,197.015
				c400.328-262.686,1038.35,52.238,1038.35,52.238l-10.424,337.315L-43.318,244.579l-20.043-625.372H53.402z"/>
		</g>
	</g>
	<g style="clip-path:url(#SVGID_00000142891383179268720090000004309773769937495705_);">
		<g>
			<path style="fill:#4F420C;" d="M-92.006-123.381c0,0,317.48-57.769,616.678,173.927S748.035-503.055,1617.213-390.09
				c0,0,388.939,53.55,393.959,74.732l7.712,629.134l-2.692,776.859H-92.006V-123.381z"/>
		</g>
	</g>
	<g style="clip-path:url(#SVGID_00000142891383179268720090000004309773769937495705_);">
		<g>
			<path style="fill:#60500F;" d="M-22.538,244.748c0,0,97.826-367.876,484.086-221.896
				c386.26,145.977,234.501-341.488,692.752-393.625c458.248-52.137,836.401-102.271,861.892,76.597l2.692,607.953l-2.692,776.859
				H-22.538V244.748z"/>
		</g>
	</g>
	<g style="clip-path:url(#SVGID_00000142891383179268720090000004309773769937495705_);">
		<g>
			<path style="fill:#726014;" d="M-169.699,550.135c0,0,318.052,112.969,330.192-252C172.631-66.832,429.986,94.796,561.09,153.886
				c131.106,59.09,344.759,45.187,352.041-218.98c7.285-264.167,567.839-344.112,1105.753,0l-2.692,473.731v681.999H-169.699
				V550.135z"/>
		</g>
	</g>
	<g style="clip-path:url(#SVGID_00000142891383179268720090000004309773769937495705_);">
		<g>
			<path style="fill:#846E13;" d="M-169.697,647.459c0,0,468.578,206.816,434.587-102.536
				c-36.887-335.712,127.53-361.491,455.483-283.285s246.44-31.434,280.607-187.697c50.541-231.145,245.393-283.023,562.016-218.981
				c292.146,59.09,455.887,231.147,455.887,231.147l-2.654,1004.528H-169.699L-169.697,647.459z"/>
		</g>
	</g>
	<g style="clip-path:url(#SVGID_00000142891383179268720090000004309773769937495705_);">
		<g>
			<path style="fill:#937B14;" d="M-92.006,796.563c0,0,422.448,142.871,485.574-60.467
				c63.124-203.338-133.533-465.768,201.513-399.725c335.045,66.04,538.987,213.764,492.856-31.285
				c-46.129-245.049,82.002-575.258,928.255-179.007v964.556H-92.006V796.563z"/>
		</g>
	</g>
	<g style="clip-path:url(#SVGID_00000142891383179268720090000004309773769937495705_);">
		<g>
			<path style="fill:#A08617;" d="M-45.877,974.192c0,0,225.79,99.065,398.169-27.807
				c172.38-126.869,87.404-524.555,451.585-443.892c364.178,80.663,538.987,136.277,480.716-32.302
				c-58.269-168.579,70.409-650.24,718.651-287.754l15.639,18.372l-2.692,889.826H-45.877V974.192z"/>
		</g>
	</g>
	<g style="clip-path:url(#SVGID_00000142891383179268720090000004309773769937495705_);">
		<g>
			<path style="fill:#B29819;" d="M298.882,1090.635c0,0,101.969-55.614,225.79-271.119s335.045-236.36,490.429-142.509
				c155.384,93.847,444.301,149.461,403.025-20.855c-41.273-170.32-169.948-404.941,148.102-462.294
				c318.048-57.351,452.655,119.919,452.655,119.919l-2.692,776.859H298.882z"/>
		</g>
	</g>
	<g style="clip-path:url(#SVGID_00000142891383179268720090000004309773769937495705_);">
		<g>
			<path style="fill:#C1AA1E;" d="M471.259,1074.994c0,0,165.095-265.904,517.136-225.934
				c352.041,39.974,580.26,8.052,548.698-141.962c-15.7-74.613-46.208-147.333-59.435-222.367
				c-15.794-89.587,41.973-210.797,179.666-233.24c93.426-15.223,208.604-5.294,287.182,36.161
				c96.008,50.65,66.795,152.972,72.45,227.227c5.947,78.1-4.048,156.436-1.101,234.662c2.816,74.706-2.241,149.289-0.223,223.968
				c1.016,37.567-3.666,76.343,0.038,113.741c0.108,1.117,0.521,2.271,0.521,3.385H461.548L471.259,1074.994z"/>
		</g>
	</g>
	<g style="clip-path:url(#SVGID_00000142891383179268720090000004309773769937495705_);">
		<g>
			<path style="fill:#D3BD1E;" d="M716.474,1090.635c0,0,118.964-142.509,485.571-156.413
				c366.61-13.904,563.267-112.969,441.874-290.237c-121.395-177.272-59.078-448.388,372.273-252v698.65H716.474z"/>
		</g>
	</g>
	<g style="clip-path:url(#SVGID_00000142891383179268720090000004309773769937495705_);">
		<g>
			<path style="fill:#E2CF24;" d="M1154.299,1090.635c0,0,16.993-93.847,220.935-92.11c203.939,1.737,420.021-52.14,393.314-262.43
				c-26.707-210.29-72.835-399.725,247.644-258.952v613.492H1154.299z"/>
		</g>
	</g>
	<g style="clip-path:url(#SVGID_00000142891383179268720090000004309773769937495705_);">
		<g>
			<path style="fill:#F9EC31;" d="M1643.919,1090.635c0,0,249.828-9.249,246.024-126.292
				c-4.86-149.461-160.242-490.101,126.249-459.973v586.265H1643.919z"/>
		</g>
	</g>
	
		<rect x="43.954" y="-266.275" style="clip-path:url(#SVGID_00000142891383179268720090000004309773769937495705_);fill:none;" width="1970.804" height="1390.352"/>
</g>
<rect style="opacity:0.67;fill:#00FFF8;" width="2000" height="1000"/>
</svg>
